mastitorrents.com
  
http://mastitorrents.com/forums/index.php







----------------------------------------------------------------------------------------------------
----------------------------------------------------------------------------------------------------

LIKE US @ FACEBOOK


1. ---&gt; http://urlgator.com/efyQx   [MastiTorrentsReleasers]

2. ---&gt; http://urlgator.com/FG4tl   [MastiTorrents]


[OR]



Search for "MastiTorrentsReleasers" and "MastiTorrents" 



We are waiting for you!!!



----------------------------------------------------------------------------------------------------
----------------------------------------------------------------------------------------------------





****************************************************************************************************
****************************************************************************************************





8b    d8    db    .dP"Y8 888888 88 888888  dP"Yb  88""Yb 88""Yb 888888 88b 88 888888 .dP"Y8 
88b  d88   dPYb   `Ybo."   88   88   88   dP   Yb 88__dP 88__dP 88__   88Yb88   88   `Ybo." 
88YbdP88  dP__Yb  o.`Y8b   88   88   88   Yb   dP 88"Yb  88"Yb  88""   88 Y88   88   o.`Y8b 
88 YY 88 dP""""Yb 8bodP'   88   88   88    YbodP  88  Yb 88  Yb 888888 88  Y8   88   8bodP' 




****************************************************************************************************
****************************************************************************************************




====================================================================================================

                        MASTI TORRENTS RELEASERS [ MTR ]

                            Where Quality Matters!

====================================================================================================









description:

 
http://www.imdb.com/title/tt1449379/ 

General
Complete name :in the Crossfire 2010 BRRip 720p Dual Audio [Hin-Eng] by imkhan -=[TDT]=-\Caught in the Crossfire 2010 BRRip 720p Dual Audio [Hin-Eng] by imkhan -=[TDT]=-.mkv
Format : Matroska
File size : 719 MiB
Duration : 1h 21mn
Overall bit rate : 1 238 Kbps
Movie name : Caught in the Crossfire 2010 BRRip 720p Dual Audio [Hin-Eng] by imkhan -=[TDT]=-
Encoded date : UTC 2011-08-20 14:49:18
Writing application : mkvmerge v4.7.0 ('Just Like You Imagined') built on Apr 21 2011 01:13:14
Writing library : libebml v1.2.0 + libmatroska v1.1.0

Video
ID : 1
Format : AVC
Format/Info : Advanced Video Codec
Format profile : High@L4.0
Format settings, CABAC : Yes
Format settings, ReFrames : 3 frames
Muxing mode : Container profile=Unknown@4.0
Codec ID : V_MPEG4/ISO/AVC
Duration : 1h 21mn
Bit rate : 1 021 Kbps
Width : 1 280 pixels
Height : 720 pixels
Display aspect ratio : 16:9
Frame rate : 25.000 fps
Resolution : 24 bits
Colorimetry : 4:2:0
Scan type : Progressive
Bits/(Pixel*Frame) : 0.044
Stream size : 593 MiB (83%)
Title : imkhan
Writing library : x264 core 104 r1683 62997d6
Encoding settings : cabac=1 / ref=3 / deblock=1:0:0 / analyse=0x3:0x133 / me=umh / subme=7 / psy=1 / psy_rd=1.00:0.00 / mixed_ref=1 / me_range=16 / chroma_me=1 / trellis=1 / 8x8dct=1 / cqm=0 / deadzone=21,11 / fast_pskip=1 / chroma_qp_offset=-2 / threads=6 / sliced_threads=0 / nr=0 / decimate=1 / interlaced=0 / constrained_intra=0 / bframes=3 / b_pyramid=0 / b_adapt=1 / b_bias=0 / direct=1 / weightb=1 / open_gop=0 / weightp=2 / keyint=240 / keyint_min=24 / scenecut=40 / intra_refresh=0 / rc_lookahead=40 / rc=crf / mbtree=1 / crf=22.0 / qcomp=0.60 / qpmin=10 / qpmax=51 / qpstep=4 / vbv_maxrate=1100 / vbv_bufsize=900 / crf_max=0.0 / ip_ratio=1.40 / aq=1:1.00 / nal_hrd=none
Language : Hindi

Audio #1
ID : 2
Format : MPEG Audio
Format version : Version 1
Format profile : Layer 3
Codec ID : A_MPEG/L3
Codec ID/Hint : MP3
Duration : 1h 21mn
Bit rate mode : Constant
Bit rate : 96.0 Kbps
Channel(s) : 2 channels
Sampling rate : 44.1 KHz
Resolution : 16 bits
Stream size : 55.8 MiB (8%)
Title : imkhan
Writing library : LAME3.98.2
Language : Hindi

Audio #2
ID : 3
Format : Vorbis
Format settings, Floor : 1
Codec ID : A_VORBIS
Duration : 1h 21mn
Bit rate mode : Constant
Bit rate : 96.0 Kbps
Channel(s) : 2 channels
Sampling rate : 48.0 KHz
Stream size : 55.8 MiB (8%)
Title : imkhan




Sample [also in dual audio] with the torrent
Hindi Audio Source : DTH Rip by Postarbhai , edited and synchronized by imkhan



Credits : imkhan@TDT





Screens/Covers:

 
http://leetleech.org/images/14127720261121201494.jpg 
http://leetleech.org/images/83004209147598805292.jpg 
http://leetleech.org/images/98288098641548697133.jpg 
http://leetleech.org/images/06168253006334438995.jpg 
http://leetleech.org/images/70346454606360010513.jpg 
http://leetleech.org/images/67929590476418647415.jpg 
http://leetleech.org/images/26591739658792058669.jpg 
http://leetleech.org/images/43271568634437867801.jpg 
http://leetleech.org/images/08722111072139071240.jpg





****check out my other releases****

 
http://thepiratebay.org/user/tdkdemon/













    &lt;&lt;&lt;&lt;&lt;&lt;&lt;SUPERFAST RELEASES BROUGHT TO YOU BY&gt;&gt;&gt;&gt;&gt;&gt;

          


                                  Masti Torrents Releasers [ MTR ]





            8888b.  888888 8b    d8  dP"Yb  88b 88     88888 8b    d8 888888 88""Yb 88888 
             8I  Yb 88__   88b  d88 dP   Yb 88Yb88     88    88b  d88   88   88__dP    88 
             8I  dY 88""   88YbdP88 Yb   dP 88 Y88     88    88YbdP88   88   88"Yb     88 
            8888Y"  888888 88 YY 88  YbodP  88  Y8     88888 88 YY 88   88   88  Yb 88888 
